<svg width="43" height="32" viewBox="0 0 43 32" fill="none" xmlns="http://www.w3.org/2000/svg">
<mask id="path-1-outside-1_348_36" maskUnits="userSpaceOnUse" x="-2" y="-2" width="47" height="36" fill="black">
<rect fill="white" x="-2" y="-2" width="47" height="36"/>
<path d="M11.88 31.24C10.0667 31.24 8.42667 30.84 6.96 30.04C5.52 29.2133 4.37333 28 3.52 26.4C2.69333 24.8 2.28 22.8 2.28 20.4C2.28 18 2.70667 16 3.56 14.4C4.44 12.8 5.6 11.6 7.04 10.8C8.50667 10 10.12 9.6 11.88 9.6C13.96 9.6 15.8 10.0533 17.4 10.96C19 11.8667 20.2667 13.1333 21.2 14.76C22.1333 16.36 22.6 18.24 22.6 20.4C22.6 22.56 22.1333 24.4533 21.2 26.08C20.2667 27.7067 19 28.9733 17.4 29.88C15.8 30.7867 13.96 31.24 11.88 31.24ZM0.64 31V1.32H4.48V15.44L4.08 20.36L4.32 25.28V31H0.64ZM11.56 27.88C12.92 27.88 14.1333 27.5733 15.2 26.96C16.2933 26.3467 17.1467 25.48 17.76 24.36C18.4 23.2133 18.72 21.8933 18.72 20.4C18.72 18.88 18.4 17.5733 17.76 16.48C17.1467 15.36 16.2933 14.4933 15.2 13.88C14.1333 13.2667 12.92 12.96 11.56 12.96C10.2267 12.96 9.01333 13.2667 7.92 13.88C6.85333 14.4933 6 15.36 5.36 16.48C4.74667 17.5733 4.44 18.88 4.44 20.4C4.44 21.8933 4.74667 23.2133 5.36 24.36C6 25.48 6.85333 26.3467 7.92 26.96C9.01333 27.5733 10.2267 27.88 11.56 27.88ZM27.9056 31V9.8H31.7456V31H27.9056ZM29.8256 5.72C29.079 5.72 28.4523 5.48 27.9456 5C27.4656 4.52 27.2256 3.93333 27.2256 3.24C27.2256 2.52 27.4656 1.92 27.9456 1.44C28.4523 0.959999 29.079 0.719999 29.8256 0.719999C30.5723 0.719999 31.1856 0.959999 31.6656 1.44C32.1723 1.89333 32.4256 2.46666 32.4256 3.16C32.4256 3.88 32.1856 4.49333 31.7056 5C31.2256 5.48 30.599 5.72 29.8256 5.72ZM39.9975 31.24C39.2508 31.24 38.6108 30.9867 38.0775 30.48C37.5442 29.9467 37.2775 29.28 37.2775 28.48C37.2775 27.68 37.5442 27.0267 38.0775 26.52C38.6108 26.0133 39.2508 25.76 39.9975 25.76C40.7175 25.76 41.3308 26.0133 41.8375 26.52C42.3708 27.0267 42.6375 27.68 42.6375 28.48C42.6375 29.28 42.3708 29.9467 41.8375 30.48C41.3308 30.9867 40.7175 31.24 39.9975 31.24Z"/>
</mask>
<path d="M6.96 30.04L5.96427 31.7745L5.98316 31.7854L6.0023 31.7958L6.96 30.04ZM3.52 26.4L1.74315 27.318L1.74915 27.3296L1.75529 27.3412L3.52 26.4ZM3.56 14.4L1.80757 13.4362L1.80136 13.4475L1.79529 13.4588L3.56 14.4ZM7.04 10.8L6.0823 9.04421L6.07549 9.04792L6.06872 9.05169L7.04 10.8ZM17.4 10.96L18.386 9.21995H18.386L17.4 10.96ZM21.2 14.76L19.4653 15.7553L19.4688 15.7616L19.4724 15.7677L21.2 14.76ZM21.2 26.08L19.4653 25.0847V25.0847L21.2 26.08ZM17.4 29.88L18.386 31.62L17.4 29.88ZM0.64 31H-1.36V33H0.64V31ZM0.64 1.32V-0.680002H-1.36V1.32H0.64ZM4.48 1.32H6.48V-0.680002H4.48V1.32ZM4.48 15.44L6.47342 15.6021L6.48 15.5212V15.44H4.48ZM4.08 20.36L2.08658 20.1979L2.07604 20.3276L2.08238 20.4574L4.08 20.36ZM4.32 25.28H6.32V25.2312L6.31763 25.1826L4.32 25.28ZM4.32 31V33H6.32V31H4.32ZM15.2 26.96L14.2215 25.2157L14.2122 25.2209L14.2031 25.2262L15.2 26.96ZM17.76 24.36L16.0136 23.3853L16.0097 23.3923L16.0058 23.3994L17.76 24.36ZM17.76 16.48L16.0058 17.4406L16.0195 17.4657L16.034 17.4904L17.76 16.48ZM15.2 13.88L14.2031 15.6138L14.2122 15.6191L14.2215 15.6243L15.2 13.88ZM7.92 13.88L6.9415 12.1357L6.93225 12.1409L6.92306 12.1462L7.92 13.88ZM5.36 16.48L3.62351 15.4877L3.61959 15.4946L3.61571 15.5015L5.36 16.48ZM5.36 24.36L3.59643 25.3033L3.60963 25.328L3.62351 25.3523L5.36 24.36ZM7.92 26.96L6.92306 28.6938L6.93225 28.6991L6.9415 28.7043L7.92 26.96ZM11.88 29.24C10.372 29.24 9.06588 28.9105 7.9177 28.2842L6.0023 31.7958C7.78745 32.7695 9.76135 33.24 11.88 33.24V29.24ZM7.95574 28.3055C6.87124 27.6829 5.97817 26.7591 5.28471 25.4588L1.75529 27.3412C2.76849 29.2409 4.16877 30.7438 5.96427 31.7745L7.95574 28.3055ZM5.29685 25.482C4.65734 24.2442 4.28 22.5824 4.28 20.4H0.28C0.28 23.0176 0.729324 25.3558 1.74315 27.318L5.29685 25.482ZM4.28 20.4C4.28 18.226 4.66773 16.573 5.32471 15.3412L1.79529 13.4588C0.745607 15.427 0.28 17.774 0.28 20.4H4.28ZM5.31243 15.3638C6.03138 14.0567 6.93532 13.1461 8.01129 12.5483L6.06872 9.05169C4.26468 10.0539 2.84862 11.5433 1.80757 13.4362L5.31243 15.3638ZM7.99771 12.5558C9.15476 11.9247 10.4361 11.6 11.88 11.6V7.6C9.80387 7.6 7.85857 8.07533 6.0823 9.04421L7.99771 12.5558ZM11.88 11.6C13.6605 11.6 15.1524 11.9851 16.414 12.7L18.386 9.21995C16.4476 8.12154 14.2595 7.6 11.88 7.6V11.6ZM16.414 12.7C17.6958 13.4264 18.7066 14.433 19.4653 15.7553L22.9347 13.7647C21.8268 11.8336 20.3042 10.3069 18.386 9.21995L16.414 12.7ZM19.4724 15.7677C20.1996 17.0143 20.6 18.5347 20.6 20.4H24.6C24.6 17.9453 24.0671 15.7057 22.9276 13.7523L19.4724 15.7677ZM20.6 20.4C20.6 22.2644 20.1999 23.8043 19.4653 25.0847L22.9347 27.0753C24.0668 25.1023 24.6 22.8556 24.6 20.4H20.6ZM19.4653 25.0847C18.7066 26.407 17.6958 27.4136 16.414 28.14L18.386 31.62C20.3042 30.5331 21.8268 29.0064 22.9347 27.0753L19.4653 25.0847ZM16.414 28.14C15.1524 28.8549 13.6605 29.24 11.88 29.24V33.24C14.2595 33.24 16.4476 32.7185 18.386 31.62L16.414 28.14ZM2.64 31V1.32H-1.36V31H2.64ZM0.64 3.32H4.48V-0.680002H0.64V3.32ZM2.48 1.32V15.44H6.48V1.32H2.48ZM2.48658 15.2779L2.08658 20.1979L6.07342 20.5221L6.47342 15.6021L2.48658 15.2779ZM2.08238 20.4574L2.32238 25.3774L6.31763 25.1826L6.07762 20.2626L2.08238 20.4574ZM2.32 25.28V31H6.32V25.28H2.32ZM4.32 29H0.64V33H4.32V29ZM11.56 29.88C13.2321 29.88 14.7958 29.4995 16.1969 28.6938L14.2031 25.2262C13.4709 25.6472 12.6079 25.88 11.56 25.88V29.88ZM16.1785 28.7043C17.6051 27.904 18.7244 26.7629 19.5142 25.3206L16.0058 23.3994C15.569 24.1971 14.9816 24.7893 14.2215 25.2157L16.1785 28.7043ZM19.5064 25.3347C20.3344 23.8512 20.72 22.1871 20.72 20.4H16.72C16.72 21.5996 16.4656 22.5754 16.0136 23.3853L19.5064 25.3347ZM20.72 20.4C20.72 18.596 20.3382 16.9255 19.486 15.4696L16.034 17.4904C16.4618 18.2212 16.72 19.164 16.72 20.4H20.72ZM19.5142 15.5194C18.7244 14.0771 17.6051 12.936 16.1785 12.1357L14.2215 15.6243C14.9816 16.0507 15.569 16.6429 16.0058 17.4406L19.5142 15.5194ZM16.1969 12.1462C14.7958 11.3405 13.2321 10.96 11.56 10.96V14.96C12.6079 14.96 13.4709 15.1928 14.2031 15.6138L16.1969 12.1462ZM11.56 10.96C9.90652 10.96 8.35276 11.344 6.9415 12.1357L8.8985 15.6243C9.6739 15.1893 10.5468 14.96 11.56 14.96V10.96ZM6.92306 12.1462C5.53322 12.9453 4.4309 14.0748 3.62351 15.4877L7.09649 17.4723C7.5691 16.6452 8.17345 16.0413 8.91694 15.6138L6.92306 12.1462ZM3.61571 15.5015C2.80251 16.9511 2.44 18.6098 2.44 20.4H6.44C6.44 19.1502 6.69082 18.1955 7.10429 17.4585L3.61571 15.5015ZM2.44 20.4C2.44 22.1732 2.80621 23.8259 3.59643 25.3033L7.12357 23.4167C6.68712 22.6007 6.44 21.6135 6.44 20.4H2.44ZM3.62351 25.3523C4.4309 26.7652 5.53322 27.8947 6.92306 28.6938L8.91694 25.2262C8.17345 24.7987 7.5691 24.1948 7.09649 23.3677L3.62351 25.3523ZM6.9415 28.7043C8.35276 29.496 9.90652 29.88 11.56 29.88V25.88C10.5468 25.88 9.6739 25.6507 8.8985 25.2157L6.9415 28.7043ZM27.9056 31H25.9056V33H27.9056V31ZM27.9056 9.8V7.8H25.9056V9.8H27.9056ZM31.7456 9.8H33.7456V7.8H31.7456V9.8ZM31.7456 31V33H33.7456V31H31.7456ZM27.9456 5L26.5314 6.41421L26.5505 6.43332L26.5701 6.4519L27.9456 5ZM27.9456 1.44L26.5701 -0.0119061L26.5505 0.00667858L26.5314 0.0257854L27.9456 1.44ZM31.6656 1.44L30.2514 2.85421L30.2907 2.89347L30.332 2.93048L31.6656 1.44ZM31.7056 5L33.1198 6.41421L33.1389 6.3951L33.1575 6.37549L31.7056 5ZM29.9056 31V9.8H25.9056V31H29.9056ZM27.9056 11.8H31.7456V7.8H27.9056V11.8ZM29.7456 9.8V31H33.7456V9.8H29.7456ZM31.7456 29H27.9056V33H31.7456V29ZM29.8256 3.72C29.5515 3.72 29.4288 3.65006 29.3211 3.54809L26.5701 6.4519C27.4758 7.30993 28.6065 7.72 29.8256 7.72V3.72ZM29.3598 3.58578C29.2638 3.48975 29.2256 3.41561 29.2256 3.24H25.2256C25.2256 4.45106 25.6674 5.55025 26.5314 6.41421L29.3598 3.58578ZM29.2256 3.24C29.2256 3.01472 29.2794 2.93462 29.3598 2.85421L26.5314 0.0257854C25.6518 0.905376 25.2256 2.02528 25.2256 3.24H29.2256ZM29.3211 2.8919C29.4288 2.78993 29.5515 2.72 29.8256 2.72V-1.28C28.6065 -1.28 27.4758 -0.869935 26.5701 -0.0119061L29.3211 2.8919ZM29.8256 2.72C30.1001 2.72 30.1858 2.78856 30.2514 2.85421L33.0798 0.0257864C32.1855 -0.868558 31.0445 -1.28 29.8256 -1.28V2.72ZM30.332 2.93048C30.3917 2.98384 30.4039 3.01311 30.4063 3.01833C30.409 3.02451 30.4256 3.06199 30.4256 3.16H34.4256C34.4256 1.91053 33.9394 0.790754 32.9992 -0.0504856L30.332 2.93048ZM30.4256 3.16C30.4256 3.38621 30.3696 3.50216 30.2537 3.62451L33.1575 6.37549C34.0016 5.48451 34.4256 4.37379 34.4256 3.16H30.4256ZM30.2914 3.58579C30.2397 3.6375 30.1488 3.72 29.8256 3.72V7.72C31.0491 7.72 32.2116 7.3225 33.1198 6.41421L30.2914 3.58579ZM38.0775 30.48L36.6633 31.8942L36.6814 31.9123L36.7 31.93L38.0775 30.48ZM38.0775 26.52L39.455 27.97L38.0775 26.52ZM41.8375 26.52L40.4233 27.9342L40.4414 27.9523L40.46 27.97L41.8375 26.52ZM41.8375 30.48L43.2517 31.8942L41.8375 30.48ZM39.9975 29.24C39.755 29.24 39.6105 29.1777 39.455 29.03L36.7 31.93C37.6112 32.7956 38.7467 33.24 39.9975 33.24V29.24ZM39.4917 29.0658C39.358 28.932 39.2775 28.7853 39.2775 28.48H35.2775C35.2775 29.7747 35.7304 30.9613 36.6633 31.8942L39.4917 29.0658ZM39.2775 28.48C39.2775 28.1749 39.3562 28.0639 39.455 27.97L36.7 25.07C35.7321 25.9895 35.2775 27.1851 35.2775 28.48H39.2775ZM39.455 27.97C39.6105 27.8223 39.755 27.76 39.9975 27.76V23.76C38.7467 23.76 37.6112 24.2044 36.7 25.07L39.455 27.97ZM39.9975 27.76C40.19 27.76 40.2937 27.8047 40.4233 27.9342L43.2517 25.1058C42.3679 24.222 41.245 23.76 39.9975 23.76V27.76ZM40.46 27.97C40.5588 28.0639 40.6375 28.1749 40.6375 28.48H44.6375C44.6375 27.1851 44.1829 25.9895 43.215 25.07L40.46 27.97ZM40.6375 28.48C40.6375 28.7853 40.557 28.932 40.4233 29.0658L43.2517 31.8942C44.1846 30.9613 44.6375 29.7747 44.6375 28.48H40.6375ZM40.4233 29.0658C40.2937 29.1953 40.19 29.24 39.9975 29.24V33.24C41.245 33.24 42.3679 32.778 43.2517 31.8942L40.4233 29.0658Z" fill="white" mask="url(#path-1-outside-1_348_36)"/>
</svg>
